<?xml version="1.0" encoding="utf-8"?>
<!-- Generator: Adobe Illustrator 22.0.1, SVG Export Plug-In . SVG Version: 6.00 Build 0)  -->
<svg version="1.1" id="NIRVANA" xmlns="http://www.w3.org/2000/svg" xmlns:xlink="http://www.w3.org/1999/xlink" x="0px" y="0px"
	 viewBox="0 0 427.8 116.2" style="enable-background:new 0 0 427.8 116.2;" xml:space="preserve">
<style type="text/css">
	.st0{fill:#FFFFFF;}
</style>
<g>
	<path id="N" class="st0" d="M57.6,3.3c0.1-0.7,0.5-1,1.1-1c0.9,0,1.9,0.4,3,1c1.1,0.7,2.2,1.6,3.2,2.6c1,1.1,1.8,2.2,2.5,3.6
		c0.7,1.3,1,2.7,1,4.1c-0.1,2.1-0.7,4.7-1.7,7.7c-1,3-2.2,6.2-3.5,9.5c-1.3,3.3-2.6,6.5-4,9.8c-1.4,3.2-2.4,6-3.1,8.4
		c-1.8,5.6-3.5,11.2-5.2,16.9c-1.7,5.7-3,11.4-4,17.3c-0.2,1.5-0.4,3.3-0.5,5.1c-0.2,1.9-0.4,3.6-0.7,5.1c-0.3,1.5-0.8,2.8-1.4,3.9
		c-0.6,1-1.5,1.6-2.7,1.6c-0.5,0-1.2-0.1-2-0.4c-0.8-0.4-1.6-2.1-2.3-5.1c-0.8-3-1.5-6.7-2.2-11.1c-0.7-4.4-1.4-9.2-2-14.4
		c-0.6-5.2-1.2-10.2-1.7-15c-0.5-4.8-1-9.1-1.4-12.8c-0.4-3.7-0.7-6.3-0.9-7.7C28.2,35.8,26.8,40,25,45c-1.8,5-3.6,10.1-5.3,15.4
		C18,65.7,16.5,71,15.2,76.1c-1.3,5.1-2,9.4-2.1,12.9c0,1.1,0,2.3,0.1,3.5c0,1.2,0,2.3-0.1,3.3c-0.1,1-0.4,1.8-0.8,2.4
		c-0.5,0.6-1.2,0.9-2.3,0.9c-1.4,0-2.5-0.3-3.2-1.1c-0.7-0.7-1.2-1.6-1.5-2.8c-0.3-1.2-0.5-2.5-0.5-4c0-1.5,0-3,0.2-4.5
		C5.1,80.2,6.1,73.8,8,67.3c1.9-6.4,3.8-12.7,6-18.9c2.1-6.2,4.1-12.1,5.9-17.7c1.8-5.7,2.8-11,3-15.9c0-1.7-0.1-2.9-0.3-3.7
		c-0.2-0.8-0.5-1.4-0.8-1.8c-0.3-0.4-0.6-0.8-1-1C20.5,8,20.2,7.5,20,6.6c0.1-0.3,0.2-0.5,0.5-0.5C20.6,6,20.8,6,21,6
		c2,0,3.9,0.4,5.8,1.3c1.9,0.8,3.5,2.2,4.9,4.2c1.3,1.7,2.4,4.5,3.3,8.5c0.9,4,1.7,8.3,2.3,12.9c0.7,4.6,1.2,9.1,1.5,13.4
		c0.4,4.3,0.6,7.8,0.8,10.3c0.2,2,0.4,3.9,0.5,5.9c0.2,2,0.3,3.9,0.5,5.9c0.1,0.3,0.2,0.9,0.3,1.9c0.1,1,0.2,1.5,0.5,1.5
		c0.6-3.4,1.4-6.9,2.3-10.7c1-3.8,2-7.6,3.2-11.3c1.2-3.8,2.3-7.5,3.5-11.1c1.2-3.6,2.4-6.9,3.6-9.9c1.1-2.7,2.2-5.7,3.2-9
		c1-3.4,1.6-6.6,1.8-9.7c0.1-1.7-0.1-2.9-0.5-3.6C58.3,5.7,58,4.7,57.6,3.3z M9.4,94.4C9.3,92.2,9,90,8.5,87.9c0,0.1,0,0.6,0,1.3
		c0,0.7,0,1.5,0.2,2.3c0.1,0.8,0.2,1.6,0.2,2.2c0,0.6,0.2,0.9,0.4,0.9L9.4,94.4z M22.4,28.1c0.1,0,0.3-0.3,0.5-1.1
		c0.2-0.7,0.5-1.5,0.8-2.3c0.2-0.8,0.5-1.7,0.6-2.5c0.2-0.8,0.2-1.4,0.2-1.7v-0.6c-0.1,0-0.3,0.4-0.5,1.2c-0.2,0.8-0.4,1.6-0.6,2.5
		c-0.2,0.9-0.4,1.8-0.6,2.7C22.6,27.2,22.5,27.8,22.4,28.1z M23.5,32.7c0.4-1.1,0.9-2.7,1.6-4.6c0.7-2,1-3.4,1-4.4v-0.4
		c-0.1,0-0.2,0.1-0.2,0.2c-0.1,0.1-0.3,0.6-0.5,1.5c-0.2,0.8-0.5,1.8-0.8,2.8c-0.3,1-0.6,2.1-0.8,3C23.7,31.8,23.5,32.4,23.5,32.7z
		 M27.7,32.1c0.6-1.4,1-2.8,1.1-4.2c-0.2,0.7-0.4,1.4-0.6,2.1C27.9,30.7,27.8,31.4,27.7,32.1z M31.7,36.7c0-2.9-0.4-5.9-1.2-8.8
		c0,0.3,0,0.8,0.2,1.7c0.1,0.8,0.2,1.8,0.4,2.7c0.2,1,0.3,1.9,0.4,2.8C31.5,36,31.6,36.5,31.7,36.7z M34.3,42.3c0.1-2,0-4.1-0.4-6.4
		c-0.4-2.3-0.7-4.4-1-6.4c-0.2-0.7-0.3-1.4-0.3-2c0-0.6-0.1-1.3-0.3-2L32,25.1v0.2c-0.1,1.1-0.1,2.5,0.2,4c0.2,1.5,0.4,2.9,0.6,4
		c0.2,1.3,0.4,2.5,0.5,3.8c0.2,1.3,0.3,2.5,0.5,3.8l0.3,1.5c0,0.3,0,0.4,0.2,0.4V42.3z M45,64.6c0.2-0.3,0.3-0.6,0.3-0.9
		c0-0.3,0-0.7,0.2-0.9C45.1,63,45,63.6,45,64.6z M45.6,62.1c0-0.3,0-0.6,0.2-1.1c0.2-0.6,0.3-1,0.3-1.3c-0.1,0.3-0.2,0.6-0.3,1.1
		C45.6,61.3,45.6,61.7,45.6,62.1z M45.9,67.8c0.1-0.1,0.3-0.6,0.5-1.4c0.2-0.8,0.5-1.6,0.8-2.5c0.2-0.9,0.5-1.7,0.8-2.5
		c0.2-0.8,0.4-1.2,0.4-1.4c1.7-6.2,3.5-12.1,5.5-17.7s4.1-11.4,6.6-17.1c0.6-1.3,1.1-2.5,1.6-3.7c0.5-1.2,0.8-2.6,1.1-4.1
		c-3.4,8-6.7,16.1-9.7,24.5C50.3,50.2,47.8,58.8,45.9,67.8z M49.1,50.1c0.2-0.1,0.4-0.8,0.6-1.9c0.2-1.1,0.3-1.8,0.3-2.1
		C49.6,47.4,49.3,48.7,49.1,50.1z M51.3,42.3c0.1-0.1,0.2-0.3,0.2-0.6l-0.3,0.2L51,42.8L51.3,42.3z M51.6,41.1
		c0.2-0.3,0.5-0.9,0.8-1.9c0.4-1,0.6-1.7,0.7-2.3c-0.2,0.7-0.5,1.4-0.8,2.1C51.9,39.7,51.7,40.4,51.6,41.1z M53.6,35.6
		c0.1,0,0.3-0.5,0.6-1.4c0.3-0.9,0.5-1.5,0.5-1.8c-0.2,0.6-0.4,1.1-0.6,1.6C53.8,34.5,53.7,35.1,53.6,35.6z M61.1,17.4
		c0.6-1.3,0.9-2.6,0.9-4c-0.2,0.7-0.4,1.4-0.5,2C61.3,16,61.2,16.7,61.1,17.4z M63.2,26.4c0.2-0.1,0.4-0.6,0.7-1.4
		c0.2-0.8,0.4-1.3,0.5-1.6c-0.2,0.3-0.5,0.7-0.8,1.4C63.4,25.4,63.2,26,63.2,26.4z"/>
	<path id="i" class="st0" d="M76,28.7c0-0.6,0.4-0.9,1.1-1.1c0.7-0.1,1.1-0.2,1.2-0.2c1.7,0,3.2,0.9,4.6,2.8c1.4,1.9,2,4,2,6.4
		c0,2.5-0.5,5.6-1.5,9.1c-1,3.6-2.3,7.3-3.8,11.1c-1.5,3.9-3.1,7.8-4.9,11.8c-1.8,4-3.4,7.7-4.9,11c-1.5,3.4-2.8,6.3-3.8,8.9
		c-1,2.6-1.5,4.4-1.5,5.4c0,1,0.1,1.6,0.2,2c0.2,0.4,0.3,0.6,0.5,0.7c0.2,0.1,0.5,0.3,0.8,0.4c0.3,0.1,0.6,0.5,0.8,1.1
		c0,0.4-0.5,0.8-1.4,1.1c-0.9,0.3-1.5,0.4-1.8,0.4c-0.6,0-1.3-0.3-2-0.8c-0.8-0.6-1.5-1.3-2.1-2.1c-0.7-0.8-1.2-1.8-1.7-2.8
		c-0.5-1.1-0.7-2.1-0.7-3c0-1.8,0.5-4.3,1.4-7.5c1-3.2,2.2-6.6,3.6-10.4c1.5-3.8,3-7.7,4.7-11.8c1.7-4.1,3.3-7.9,4.7-11.7
		c1.5-3.7,2.7-7.1,3.6-10.1c1-3,1.4-5.3,1.4-6.8c0-0.7-0.1-1.4-0.4-2C76.2,30.1,76,29.4,76,28.7z M58.7,90.7
		c0.3-0.7,0.5-1.4,0.6-2.1c0.1-0.7,0.2-1.4,0.3-2.1L58.7,90.7z M60.8,90.7c0.2,0,0.5-0.8,0.8-2.5c0.3-1.7,0.5-2.8,0.6-3.4
		c-0.2,0.4-0.5,1.3-0.9,2.6c-0.4,1.3-0.6,2.2-0.6,2.6v0.4C60.7,90.6,60.7,90.7,60.8,90.7z M76.9,41.1c0.1,0,0.2-0.3,0.4-0.9
		c0.2-0.6,0.3-1.3,0.5-2c0.2-0.7,0.3-1.4,0.5-2c0.2-0.6,0.2-1.1,0.2-1.4v-0.6c-0.2,0-0.4,0.6-0.6,1.8c-0.2,1.2-0.4,1.9-0.5,2.2
		c-0.1,0.4-0.2,0.9-0.3,1.4C77,40,76.9,40.5,76.9,41.1z M77.8,45.5c0.1,0,0.3-0.3,0.5-1.1c0.2-0.7,0.5-1.5,0.8-2.3
		c0.2-0.8,0.5-1.7,0.7-2.5c0.2-0.8,0.3-1.4,0.3-1.7v-0.8c-0.1,0-0.3,0.5-0.5,1.5c-0.3,1-0.4,1.6-0.5,1.9c-0.1,0.3-0.3,1.1-0.7,2.5
		C78,44.4,77.8,45.2,77.8,45.5z M82.1,45.5c0.4-1,0.6-2,0.6-2.9v-0.8c-0.2,0.7-0.4,1.3-0.5,1.9C82.1,44.2,82.1,44.8,82.1,45.5z
		 M82.4,10c0-2.4,0.6-4.2,1.7-5.4c1.2-1.2,2.5-1.8,4-1.8c1.4,0,2.7,0.5,4,1.5c1.3,1,1.9,2.6,1.9,4.8c0,2-0.5,3.7-1.4,5.3
		c-0.9,1.5-2.1,2.3-3.5,2.3c-1.2,0-2.6-0.6-4.3-1.9C83.2,13.6,82.4,12,82.4,10z"/>
	<path id="r" class="st0" d="M103.3,52.2c0.8-1.3,2.1-3.2,3.8-5.9c1.7-2.7,3.5-5.4,5.5-8.1c2-2.7,3.9-5.1,5.8-7.1c1.9-2,3.5-3,4.7-3
		c0.8,0,1.8,0.1,2.9,0.3c1.2,0.2,1.7,1.1,1.7,2.6c0,1.5-0.3,3.1-0.9,4.7c-0.6,1.6-1.2,3.2-1.9,4.7c-0.7,1.5-1.3,3-1.9,4.5
		c-0.6,1.5-0.9,2.8-0.9,4.1c0,1.3,0.2,2.1,0.5,2.5c0.4,0.4,0.8,0.7,1.2,0.7c0.5,0.1,0.9,0.1,1.4,0.2c0.5,0.1,0.7,0.3,0.8,0.7
		c-0.4,0.8-1,1.7-1.7,2.6c-0.7,0.9-1.5,1.4-2.3,1.4c-1.9,0-3.3-0.3-4.1-0.8c-0.9-0.6-1.5-1.3-1.9-2.3c-0.4-1-0.8-2.1-1.1-3.5
		c-0.3-1.3-0.8-2.8-1.5-4.5c-4.8,7.7-9.6,15.8-14.4,24.3c-4.8,8.5-8.8,17.3-12,26.6c-0.2,0.7-0.5,1.3-0.8,1.8s-0.7,0.7-1.2,0.7
		c-0.8,0-1.6-0.3-2.4-0.8c-0.8-0.6-1.6-1.2-2.3-1.9l-0.2-2.1c0-4.2,0.9-9,2.6-14.4c1.8-5.4,3.7-11,5.8-16.8c2.1-5.8,4-11.5,5.8-17.1
		c1.8-5.6,2.6-10.7,2.6-15.3c0-1.4,0.1-2.3,0.2-2.7c0.2-0.4,0.8-0.6,2-0.6c1,0,1.8,0.4,2.5,1.3c0.7,0.8,1.2,1.9,1.6,3.2
		c0.4,1.3,0.7,2.6,0.8,3.9c0.2,1.3,0.2,2.5,0.2,3.5c0,2.2-0.2,4.4-0.6,6.6c-0.4,2.2-0.9,4.2-1.4,6.2H103.3z M97.4,43.8
		c0.5-2.4,0.8-4,0.8-4.8c-0.1-0.3-0.2-0.3-0.2-0.2c-0.1,0.1-0.2,0.6-0.4,1.5c-0.3,1.4-0.7,2.9-1.1,4.5c-0.4,1.6-0.9,3.4-1.5,5.5
		c-0.6,2-1.3,4.4-2.2,7c-0.9,2.7-1.9,5.8-3.1,9.5c-1.1,3.2-2,6-2.8,8.2c-0.8,2.2-1.4,4.1-1.9,5.6c-0.5,1.5-0.9,2.6-1.1,3.4
		c-0.3,0.8-0.4,1.4-0.5,1.8c-0.3,1.4-0.6,2.8-0.9,4.3c-0.3,1.5-0.4,2.2-0.3,2.2c0.1,0.1,0.3-0.4,0.5-1.7c0.2-0.8,0.5-1.8,0.8-2.8
		c0.3-1.1,0.7-2.4,1.2-4c0.5-1.6,1.2-3.6,2-6c0.8-2.4,1.8-5.3,3-8.8c1.4-4.1,2.5-7.4,3.4-10.1c0.9-2.7,1.6-4.9,2.1-6.6
		c0.6-1.7,1-3.3,1.4-4.5C96.8,46.3,97.1,45.1,97.4,43.8z M98.2,49.9c0.4-1.8,0.6-2.9,0.6-3.3c0-0.3-0.3,0.2-0.8,1.8
		c-0.6,2.1-1.5,5-2.8,8.8c-1.3,3.8-2.9,8.8-5,14.9c-1.1,3.4-2.1,6.3-2.9,8.7c-0.9,2.5-1.3,3.7-1.3,3.9c0.1,0.3,0.6-0.6,1.4-2.6
		c0.8-2,2.2-5.7,4.1-11C93.5,65,95,60.4,96,57.4C96.9,54.4,97.7,51.9,98.2,49.9z M100.3,55.2c0.4-1.3,0.6-2,0.5-2.1l-0.3,0.8
		c-0.1,0.3-0.2,0.6-0.3,0.9c-0.1,0.4-0.2,0.7-0.3,1.2c-0.7,2-1.1,3.1-1.2,3.5c-0.1,0.4-0.1,0.5,0.2,0.3
		C99.1,59.5,99.6,58,100.3,55.2z M116.1,44c0.2-0.8,0.3-1.3,0.3-1.5c-0.1-0.3-0.2-0.2-0.4,0.3c-0.2,0.5-0.2,0.9-0.2,1.4
		C115.8,44.7,115.9,44.6,116.1,44z M119.6,40.7c0.6-1.5,1-2.6,1.1-3.2c0.1-0.6-0.1-0.5-0.6,0.2c-0.3,0.6-0.7,1.5-1.1,2.7
		c-0.4,1.3-0.7,2.2-0.8,2.9c-0.2,0.8-0.2,1,0.2,0.5C118.7,43.4,119.1,42.3,119.6,40.7z M123.2,41.1c1-2.5,1.5-4,1.5-4.4
		c-0.1,0.3-0.3,0.6-0.5,1c-0.4,0.8-0.7,1.5-0.9,2.1c-0.8,2-1.3,3.3-1.6,4c-0.3,0.7-0.3,1.1-0.2,1.3c0.1-0.3,0.2-0.6,0.5-1
		C122.4,43.2,122.8,42.2,123.2,41.1z"/>
	<path id="v" class="st0" d="M130,29.3c0.1-0.7,0.7-1.2,1.7-1.4c1-0.2,1.7-0.3,2.1-0.3c3.4,0,5.9,1.4,7.6,4.1
		c1.7,2.7,2.5,6.4,2.5,11c0,3.4-0.6,7.3-1.8,11.9c-1.2,4.6-2.6,9.2-4.1,13.9c-1.5,4.7-2.9,9.1-4.1,13.3c-1.2,4.2-1.8,7.6-1.8,10.3
		c0,0.8,0.1,1.4,0.3,1.7c2.8-2.7,5.3-6,7.6-9.9c2.3-3.9,4.3-8.1,6.2-12.5c1.9-4.4,3.5-9,4.9-13.7c1.4-4.7,2.7-9.2,3.8-13.5
		c0.2-0.8,0.5-2.2,0.8-4.1c0.3-1.9,0.7-3.7,1.1-5.6c0.4-1.8,0.9-3.4,1.4-4.8c0.6-1.4,1.1-2.1,1.7-2.1c1.8,0,2.9,0.8,3.3,2.4
		c0.4,1.6,0.6,3.4,0.6,5.4c0,2.7-0.4,6.1-1.3,10.3c-0.9,4.2-2,8.6-3.5,13.3c-1.5,4.7-3.3,9.5-5.3,14.3c-2,4.8-4.1,9.2-6.4,13
		c-2.3,3.9-4.6,7-6.9,9.3c-2.4,2.4-4.6,3.6-6.9,3.6c-2.3,0-4.5-0.7-6.6-2.1c-2.1-1.4-3.1-4-3.1-7.8c0-4.3,0.6-8.6,1.7-12.9
		c1.2-4.3,2.4-8.5,3.8-12.8c1.4-4.3,2.7-8.5,3.8-12.8c1.2-4.3,1.7-8.6,1.7-12.9c0-1.4-0.2-2.4-0.5-3.2c-0.4-0.7-0.8-1.3-1.3-1.9
		c-0.5-0.6-1.1-1.1-1.7-1.6C131,30.8,130.5,30.2,130,29.3z M126.3,85.6c0.2-1.1,0.3-2,0.4-2.7c0-0.7,0-1.1-0.1-1.1
		c0-0.1-0.1,0-0.2,0.5c-0.1,0.5-0.2,1.1-0.3,1.8c-0.1,0.7-0.2,1.5-0.3,2.3c-0.1,0.8-0.2,1.5-0.2,2.1c-0.1,1.5-0.1,2.1,0.1,1.7
		C126,89.8,126.1,88.3,126.3,85.6z M129.8,79.3c0.2-1.4,0.3-2,0.3-1.9c-0.2,0-0.6,1.2-1.1,3.6c-0.5,1.8-0.9,3.4-1.1,4.8
		c-0.3,1.4-0.3,2.5-0.2,3.4c0,0.6,0,0.6,0.2,0.2c0.3-0.7,0.6-2.2,0.9-4.6c0.2-1.1,0.4-2.2,0.5-3.3C129.4,80.5,129.6,79.7,129.8,79.3
		z M131.2,88.1c0.1-0.7,0.1-1.1,0.1-1.2c-0.1-0.1-0.1,0.2-0.2,0.9V89c0,0.1,0,0.1,0.1-0.1C131.1,88.7,131.2,88.4,131.2,88.1z
		 M131.6,64c0-0.3,0-0.5,0.1-0.6c0-0.1,0.1-0.3,0.1-0.4c0-0.1,0-0.3,0.2-0.4c-0.1-0.1-0.3,0.2-0.5,1c-0.2,0.8-0.3,1.3-0.2,1.4
		C131.3,65,131.4,64.7,131.6,64z M138.8,42.8c-0.1,0-0.3,0.6-0.5,1.9c-0.3,1.3-0.5,2.7-0.8,4.4c-0.1,0.3-0.3,1.1-0.6,2.5
		c-0.3,1.4-0.7,2.9-1.1,4.6c-0.5,1.7-0.9,3.3-1.3,4.9c-0.4,1.6-0.8,2.8-1.1,3.7c-0.2,1.1-0.4,2-0.6,2.6c-0.2,0.6-0.3,1-0.3,1.2
		c0.1,0,0.3-0.4,0.5-1.2c0.2-0.8,0.9-3,2-6.6c1.1-3.8,2-7.1,2.6-10.1c0.7-2.9,1-4.9,1.1-5.9V42.8z M136.9,39.2v-0.6
		c-0.1,0-0.2,0.2-0.2,0.6c-0.1,0.4-0.2,1.6-0.4,3.6c-0.2,1.4-0.5,3-0.8,4.8c-0.4,1.8-0.9,4.3-1.7,7.4c-0.2,1-0.4,1.8-0.5,2.3
		c-0.1,0.6-0.1,0.8,0,0.6c0-0.1,0.1-0.6,0.4-1.3c0.2-0.7,0.5-1.5,0.7-2.5c0.2-1,0.4-2,0.7-3c0.2-1.1,0.4-1.8,0.5-2.2
		c0.9-2.9,1.4-5.6,1.4-8V39.2z M139.6,58.1c0.2-0.4,0.2-0.7,0.2-0.8l-0.3,0.4c-0.1,0.4-0.1,0.7-0.1,0.7
		C139.4,58.5,139.5,58.4,139.6,58.1z M142,48.4c0.2-1.8,0.2-2.5,0.1-2.1c-0.2,0.4-0.4,1.6-0.8,3.6c-0.2,0.7-0.3,1.3-0.4,1.7
		c-0.1,0.4-0.1,0.8-0.2,1.3c-0.1,0.6-0.2,1-0.2,1.3c0.2,0.1,0.5-0.5,0.8-2C141.6,50.6,141.8,49.4,142,48.4z M158.1,38.1
		c0.1-0.8,0.1-1.2,0-1.1c-0.1,0.1-0.3,0.8-0.6,1.9c-1.1,4.8-2.1,8.9-3.1,12.3c-1,3.4-2.1,7.2-3.5,11.4c-0.8,2.7-1.2,3.9-1.1,3.8
		c0.1-0.1,0.6-1.5,1.5-4.2c0.6-1.7,1.3-3.7,2-6.1c0.8-2.4,1.5-4.7,2.1-7c0.7-2.3,1.2-4.5,1.7-6.5C157.6,40.6,157.9,39.1,158.1,38.1z
		 M156.9,51c0.3-1.1,0.6-2,0.8-2.7c0.2-0.7,0.2-1.1,0.2-1.3c-0.1,0.3-0.2,0.6-0.3,1.1c-0.1,0.3-0.2,0.6-0.3,0.9
		c-0.1,0.4-0.2,0.7-0.3,1.2c-0.2,0.8-0.7,2.5-1.5,4.8c-0.8,2.4-1.6,4.8-2.4,7.1c-1.6,4.5-2.5,7.1-2.6,8s0.3-0.1,1.4-2.9
		c0.8-2.1,1.7-4.7,2.7-7.9C155.5,56.1,156.3,53.3,156.9,51z M157.4,60c0.1-0.3,0.2-0.6,0.3-0.8c0.1-0.3,0.2-0.6,0.3-0.8
		c0.1-0.3,0.2-0.5,0.2-0.6c-0.1-0.1-0.4,0.6-0.9,2.3c-0.6,1.5-0.8,2.3-0.6,2.3c0.1-0.1,0.2-0.3,0.3-0.6
		C157,61.4,157.2,60.8,157.4,60z"/>
	<path id="a1" class="st0" d="M165.2,56.5c0.9-2.7,2.2-5.7,4-9.1c1.8-3.4,3.8-6.6,6-9.6c2.3-3,4.7-5.5,7.2-7.6c2.6-2,5-3.1,7.5-3.1
		c1.8-0.1,3.6,0.6,5.3,2.2c1.8,1.6,3.3,4.2,4.7,7.9l0.3-0.2c0-0.6,0-0.9,0.2-1l0.6-3.2c0.2-0.3,0.3-0.8,0.3-1.5
		c0.2-0.8,0.4-1.6,0.5-2.4c0.1-0.8,0.4-1.2,0.9-1.2c1.1,0,2.3,0.6,3.5,1.7c1.2,1.1,1.9,2.5,2.1,4c0.1,1.3,0,3-0.4,5.2
		c-0.4,2.2-0.9,4.6-1.7,7.2c-0.8,2.6-1.6,5.4-2.6,8.3c-1,3-1.9,5.8-2.9,8.6c-1,3-2,6-3,9.1c-1,3.1-1.9,6-2.6,8.8
		c-0.8,2.8-1.4,5.4-1.8,7.8c-0.5,2.4-0.6,4.4-0.4,6.1c-0.2,1.1,0.2,1.7,1.2,1.7c0.6,0,1.2-0.3,1.8-0.8c0.3-0.3,0.7-0.5,1.1-0.7
		c0.4-0.2,0.7-0.3,0.9-0.3c0,0.1,0,0.2,0.2,0.2c0.1,0,0.2,0,0.2,0.1c0,0.1,0,0.1,0.2,0.1c-0.2,1.1-0.9,2.1-2,2.8
		c-1.2,0.8-2.2,1.2-3.1,1.2c-1.7,0-3.5-0.5-5.3-1.5c-1.8-1-2.9-2.8-3.3-5.5c-0.1-2,0-4,0.3-6.1c0.3-2.1,0.7-5.3,1.1-9.5
		c-0.7,1.1-1.9,2.9-3.5,5.4c-1.7,2.5-3.4,4.9-5.3,7.5c-1.9,2.5-3.7,4.8-5.4,6.7c-1.7,2-3,2.9-3.8,2.9c-2.5,0-4.5-1.2-6-3.5
		c-1.5-2.3-2.5-5.1-2.9-8.3c-0.2-2.1-0.2-4.6,0.2-7.4c0.3-2.8,0.8-5.6,1.4-8.4c0.7-2.8,1.4-5.5,2.2-8.1
		C163.6,60.5,164.4,58.3,165.2,56.5z M160.8,90c0.1-0.1,0.1-0.6,0.1-1.5c-0.1-0.8-0.1-1.3-0.1-1.5c-0.1-1.5,0-3.1,0.2-4.7
		c0.2-1.6,0.3-3.2,0.1-4.7l-0.2-0.2c-0.1,0-0.2,0.2-0.2,0.5c0,0.4,0,0.6,0,0.7c-0.2,1.3-0.4,2.6-0.5,4c-0.2,1.4-0.1,2.9,0.1,4.4
		C160.4,88.1,160.5,89.1,160.8,90z M162.6,89.4c0.1-0.1,0.2-0.8,0.3-1.9c0.1-1.1,0.2-2.4,0.3-3.8c0.1-1.4,0.2-2.7,0.2-3.9
		c0-1.2,0.1-1.9,0.1-2.2c-0.3,1.7-0.6,3.4-0.9,5.1c-0.3,1.8-0.4,3.5-0.2,5.4L162.6,89.4z M166.1,90.2l-0.2-1.9v2.3l-0.2,0.2
		L166.1,90.2z M195.9,39.8c0-1-0.3-2.2-0.8-3.8c-0.6-1.5-1.4-2.3-2.5-2.3c-1.4,0-3,1.1-4.7,3.4c-1.8,2.2-3.6,5.1-5.4,8.7
		c-1.9,3.6-3.6,7.5-5.3,11.9c-1.7,4.3-3.1,8.6-4.4,12.9c-1.3,4.3-2.2,8.3-2.9,12c-0.7,3.7-0.8,6.7-0.5,8.9c0.1,0.7,0.9,0.2,2.3-1.5
		c1.4-1.7,3.1-4.1,5.2-7.2c2.1-3.2,4.2-6.8,6.5-10.9c2.3-4.1,4.4-8.2,6.3-12.3c2-4.1,3.5-7.8,4.7-11.3
		C195.6,44.7,196.1,41.9,195.9,39.8z M170.9,50.1c0.2,0,0.5-0.3,0.9-0.9c0.4-0.6,0.6-1,0.5-1.2c0.7-1.3,1.5-2.4,2.4-3.6
		c0.9-1.1,1.6-2.2,2.1-3.4v-0.4c-0.1,0-0.3,0.1-0.5,0.3c-0.2,0.2-0.3,0.4-0.3,0.5c-0.8,0.8-1.6,1.7-2.3,2.6
		c-0.8,0.9-1.4,2.1-1.9,3.5c-0.1,0.3-0.2,0.6-0.4,1.1C171.3,49.1,171.1,49.6,170.9,50.1z M173.3,51.2c0.1,0,0.4-0.4,1-1.2
		c0.6-0.8,1.2-1.6,1.9-2.5c0.7-0.9,1.3-1.8,1.9-2.6c0.6-0.8,0.9-1.3,1.1-1.5c-1,1-2,2-3.1,3c-1.1,1.1-1.9,2.3-2.6,3.7L173.3,51.2z
		 M175.8,55l0.6-1.5l-0.9,1.7v0.2L175.8,55z M186.2,92.8c0.1-0.4,0.2-1.6,0.2-3.5s0-3.2,0-3.9l-0.6,6.1L186.2,92.8z M188.1,92.6
		c0.2,0,0.3-0.2,0.4-0.7c0-0.5,0-0.8-0.1-0.9V89v-0.4c-0.2,0-0.3,0.6-0.3,1.9C188.1,91.7,188.1,92.4,188.1,92.6z M191.7,93v0.4
		l0.3,0.4L191.7,93z M200.3,40.7c0.2,0,0.4-0.4,0.7-1.3c0.2-0.8,0.5-1.8,0.7-2.8c0.2-1.1,0.4-2.1,0.5-3.2c0.1-1.1,0.2-1.8,0.2-2.2
		c-0.2,0-0.3,0.2-0.4,0.7c-0.1,0.5-0.1,0.8-0.1,0.9c-0.2,1.4-0.5,2.7-0.8,4C200.8,38.1,200.5,39.4,200.3,40.7z M201.2,44.4
		c0.5-1.5,1.1-3,1.7-4.4c0.6-1.4,1-3,1.1-4.8h-0.3c-0.3,1.5-0.7,3.1-1.2,4.6C201.9,41.4,201.5,42.9,201.2,44.4z M204.1,47.4
		c0.2-0.6,0.5-1.3,0.8-2.2c0.4-0.9,0.7-1.9,1-2.9c0.3-1.1,0.6-2.1,0.8-3c0.2-1,0.3-1.7,0.3-2.3h-0.2l-0.5,1.5
		c-0.4,1.5-0.8,3-1.1,4.5C204.9,44.3,204.5,45.9,204.1,47.4z"/>
	<path id="n" class="st0" d="M218.8,27.6c2.2,0,4.1,1,5.7,2.9c1.6,2,2.5,4.5,2.7,7.6c0.1,2.4-0.1,4.8-0.7,7.4c-0.6,2.5-1.2,5-2,7.6
		c-0.8,2.5-1.7,5-2.6,7.4c-0.9,2.4-1.7,4.6-2.3,6.7c1-1.1,2.4-2.9,4.2-5.3c1.8-2.4,3.8-5,6-8c2.2-2.9,4.4-6,6.8-9
		c2.4-3.1,4.7-5.9,6.9-8.5c2.3-2.6,4.3-4.7,6.3-6.3c1.9-1.6,3.5-2.4,4.7-2.4c0.9,0,1.7,0.4,2.4,1.3c0.7,0.8,1.1,1.9,1.2,3.2
		c0.1,1.5-0.4,3.8-1.4,6.7c-1.1,2.9-2.4,6.3-4.1,10.1c-1.7,3.8-3.4,7.8-5.3,12c-1.9,4.2-3.7,8.4-5.3,12.5c-1.7,4.1-3,8.1-4,11.8
		c-1,3.7-1.4,6.9-1.2,9.6c0,0.7,0.3,1.1,0.9,1.1s1.2-0.1,1.8-0.3c0.6-0.2,1.2-0.4,1.8-0.5c-0.6,1.3-1.4,2.3-2.5,3.2
		c-1.1,0.8-2.1,1.3-3.2,1.3c-1.8,0-3.2-0.7-4.1-2.2c-0.9-1.5-1.4-3.4-1.5-5.8c-0.3-3.9,0.2-8.2,1.4-12.8c1.3-4.6,2.8-9.2,4.6-13.9
		c1.8-4.6,3.7-9.1,5.7-13.4c2-4.3,3.6-8.1,4.9-11.3c-6.5,5.9-12.4,13-17.7,21.4c-5.3,8.4-10.3,16.8-15.1,25.2
		c-0.3,0.4-0.8,1.3-1.4,2.6c-0.7,1.3-1.4,2.7-2.1,4c-0.8,1.3-1.5,2.6-2.3,3.7c-0.8,1.1-1.3,1.7-1.7,1.7c-0.8,0-1.6-0.4-2.3-1.3
		c-0.8-0.8-1.4-1.7-2-2.5c0.3-2.7,1-5.8,2-9.6c1-3.7,2.1-7.6,3.4-11.7c1.3-4.1,2.6-8.2,3.9-12.5c1.4-4.3,2.6-8.3,3.7-12.1
		c1.1-3.8,2-7.1,2.6-10.1c0.7-2.9,0.9-5.3,0.8-6.9c-0.1-0.7-0.3-1.5-0.5-2.3c-0.3-0.8-0.3-1.5-0.1-1.9H218.8z M220.2,35.8
		c0.1-1.1,0-1.5-0.2-1.2c-0.2,0.4-0.4,1.2-0.6,2.6c-0.1,0.7-0.3,1.6-0.5,2.8c-0.3,1.2-0.5,2.4-0.8,3.7c-0.3,1.3-0.5,2.4-0.8,3.4
		c-0.3,1-0.5,1.6-0.6,1.9c-0.2,0.6-0.3,0.9-0.3,1c0.2,0.3,0.5-0.1,0.8-1.2c0.3-1.1,0.7-2.4,1.2-4.1c0.5-1.5,0.9-3.2,1.2-4.8
		C219.9,38.4,220.1,37,220.2,35.8z M221.9,41.3c-0.2-1.1-0.3-1.7-0.2-1.7c0,0.1-0.1,0.4-0.2,0.6c-0.2,0.6-0.3,1-0.3,1.3
		c-0.5,2.2-1,4.2-1.5,6c-0.5,1.8-1,3.3-1.4,4.7c-0.5,2-0.7,2.8-0.5,2.5c0.2-0.3,0.6-1.4,1.3-3.4c0.7-2.1,1.3-4.1,1.8-6
		C221.5,43.5,221.8,42.1,221.9,41.3z M225,45.5c0-1.1-0.1-1.5-0.3-1.1c-0.1,0.1-0.2,0.6-0.4,1.3c-0.2,0.7-0.3,1.4-0.5,2.2
		c-0.2,0.8-0.3,1.8-0.5,3c0.3-0.8,0.6-1.6,0.8-2.2c0.2-0.6,0.4-1.3,0.5-1.9S224.9,45.8,225,45.5z M231.6,88.6
		c0.3-2.1,0.5-3.4,0.5-3.8c-0.1,0-0.2,0.2-0.3,0.7c-0.1,0.5-0.2,1.1-0.3,1.9c-0.1,0.8-0.2,1.5-0.3,2.2c-0.1,0.7-0.2,1.2-0.2,1.5
		C231.1,91.8,231.3,90.9,231.6,88.6z M235,81.6c-0.1,0-0.3,0.4-0.5,1.2c-0.2,0.8-0.4,1.7-0.7,2.7c-0.3,1.1-0.5,2.1-0.6,3
		c-0.2,1-0.2,1.7-0.2,2.1c0.1,0.4,0.2,0.3,0.3-0.3c0.1-0.6,0.3-1.7,0.6-3.3c0.2-1.3,0.4-2.4,0.6-3.4c0.2-1,0.4-1.5,0.5-1.7V81.6z"/>
	<path id="a2" class="st0" d="M255.8,56.5c0.9-2.7,2.2-5.7,4-9.1c1.8-3.4,3.8-6.6,6-9.6c2.3-3,4.7-5.5,7.2-7.6c2.6-2,5-3.1,7.5-3.1
		c1.8-0.1,3.6,0.6,5.3,2.2c1.8,1.6,3.3,4.2,4.7,7.9l0.3-0.2c0-0.6,0-0.9,0.2-1l0.6-3.2c0.2-0.3,0.3-0.8,0.3-1.5
		c0.2-0.8,0.4-1.6,0.5-2.4c0.1-0.8,0.4-1.2,0.9-1.2c1.1,0,2.3,0.6,3.5,1.7c1.2,1.1,1.9,2.5,2.1,4c0.1,1.3,0,3-0.4,5.2
		c-0.4,2.2-0.9,4.6-1.7,7.2c-0.8,2.6-1.6,5.4-2.6,8.3c-1,3-1.9,5.8-2.9,8.6c-1,3-2,6-3,9.1c-1,3.1-1.9,6-2.6,8.8
		c-0.8,2.8-1.4,5.4-1.8,7.8c-0.5,2.4-0.6,4.4-0.4,6.1c-0.2,1.1,0.2,1.7,1.2,1.7c0.6,0,1.2-0.3,1.8-0.8c0.3-0.3,0.7-0.5,1.1-0.7
		c0.4-0.2,0.7-0.3,0.9-0.3c0,0.1,0,0.2,0.2,0.2c0.1,0,0.2,0,0.2,0.1c0,0.1,0,0.1,0.2,0.1c-0.2,1.1-0.9,2.1-2,2.8
		c-1.2,0.8-2.2,1.2-3.1,1.2c-1.7,0-3.5-0.5-5.3-1.5c-1.8-1-2.9-2.8-3.3-5.5c-0.1-2,0-4,0.3-6.1c0.3-2.1,0.7-5.3,1.1-9.5
		c-0.7,1.1-1.9,2.9-3.5,5.4c-1.7,2.5-3.4,4.9-5.3,7.5c-1.9,2.5-3.7,4.8-5.4,6.7c-1.7,2-3,2.9-3.8,2.9c-2.5,0-4.5-1.2-6-3.5
		c-1.5-2.3-2.5-5.1-2.9-8.3c-0.2-2.1-0.2-4.6,0.2-7.4c0.3-2.8,0.8-5.6,1.4-8.4c0.7-2.8,1.4-5.5,2.2-8.1
		C254.1,60.5,254.9,58.3,255.8,56.5z M251.4,90c0.1-0.1,0.1-0.6,0.1-1.5c-0.1-0.8-0.1-1.3-0.1-1.5c-0.1-1.5,0-3.1,0.2-4.7
		c0.2-1.6,0.3-3.2,0.1-4.7l-0.2-0.2c-0.1,0-0.2,0.2-0.2,0.5c0,0.4,0,0.6,0,0.7c-0.2,1.3-0.4,2.6-0.5,4c-0.2,1.4-0.1,2.9,0.1,4.4
		C250.9,88.1,251.1,89.1,251.4,90z M253.2,89.4c0.1-0.1,0.2-0.8,0.3-1.9c0.1-1.1,0.2-2.4,0.3-3.8c0.1-1.4,0.2-2.7,0.2-3.9
		c0-1.2,0.1-1.9,0.1-2.2c-0.3,1.7-0.6,3.4-0.9,5.1c-0.3,1.8-0.4,3.5-0.2,5.4L253.2,89.4z M256.7,90.2l-0.2-1.9v2.3l-0.2,0.2
		L256.7,90.2z M286.5,39.8c0-1-0.3-2.2-0.8-3.8c-0.6-1.5-1.4-2.3-2.5-2.3c-1.4,0-3,1.1-4.7,3.4c-1.8,2.2-3.6,5.1-5.4,8.7
		c-1.9,3.6-3.6,7.5-5.3,11.9c-1.7,4.3-3.1,8.6-4.4,12.9c-1.3,4.3-2.2,8.3-2.9,12c-0.7,3.7-0.8,6.7-0.5,8.9c0.1,0.7,0.9,0.2,2.3-1.5
		c1.4-1.7,3.1-4.1,5.2-7.2c2.1-3.2,4.2-6.8,6.5-10.9c2.3-4.1,4.4-8.2,6.3-12.3c2-4.1,3.5-7.8,4.7-11.3
		C286.2,44.7,286.7,41.9,286.5,39.8z M261.5,50.1c0.2,0,0.5-0.3,0.9-0.9c0.4-0.6,0.6-1,0.5-1.2c0.7-1.3,1.5-2.4,2.4-3.6
		c0.9-1.1,1.6-2.2,2.1-3.4v-0.4c-0.1,0-0.3,0.1-0.5,0.3c-0.2,0.2-0.3,0.4-0.3,0.5c-0.8,0.8-1.6,1.7-2.3,2.6
		c-0.8,0.9-1.4,2.1-1.9,3.5c-0.1,0.3-0.2,0.6-0.4,1.1C261.9,49.1,261.7,49.6,261.5,50.1z M263.9,51.2c0.1,0,0.4-0.4,1-1.2
		c0.6-0.8,1.2-1.6,1.9-2.5c0.7-0.9,1.3-1.8,1.9-2.6c0.6-0.8,0.9-1.3,1.1-1.5c-1,1-2,2-3.1,3c-1.1,1.1-1.9,2.3-2.6,3.7L263.9,51.2z
		 M266.3,55l0.6-1.5l-0.9,1.7v0.2L266.3,55z M276.7,92.8c0.1-0.4,0.2-1.6,0.2-3.5s0-3.2,0-3.9l-0.6,6.1L276.7,92.8z M278.7,92.6
		c0.2,0,0.3-0.2,0.4-0.7c0-0.5,0-0.8-0.1-0.9V89v-0.4c-0.2,0-0.3,0.6-0.3,1.9C278.7,91.7,278.7,92.4,278.7,92.6z M282.3,93v0.4
		l0.3,0.4L282.3,93z M290.9,40.7c0.2,0,0.4-0.4,0.7-1.3c0.2-0.8,0.5-1.8,0.7-2.8c0.2-1.1,0.4-2.1,0.5-3.2c0.1-1.1,0.2-1.8,0.2-2.2
		c-0.2,0-0.3,0.2-0.4,0.7c-0.1,0.5-0.1,0.8-0.1,0.9c-0.2,1.4-0.5,2.7-0.8,4C291.3,38.1,291.1,39.4,290.9,40.7z M291.8,44.4
		c0.5-1.5,1.1-3,1.7-4.4c0.6-1.4,1-3,1.1-4.8h-0.3c-0.3,1.5-0.7,3.1-1.2,4.6C292.5,41.4,292.1,42.9,291.8,44.4z M294.6,47.4
		c0.2-0.6,0.5-1.3,0.8-2.2c0.4-0.9,0.7-1.9,1-2.9c0.3-1.1,0.6-2.1,0.8-3c0.2-1,0.3-1.7,0.3-2.3h-0.2l-0.5,1.5
		c-0.4,1.5-0.8,3-1.1,4.5C295.4,44.3,295,45.9,294.6,47.4z"/>
	<path id="_x35_" class="st0" d="M342,92.7c0,5.5-3.3,10.4-10,14.6c-6.7,4.3-15.6,6.6-26.8,6.9l-1.4-4.7c9.2-0.5,16.4-2,21.6-4.8
		c5.2-2.7,7.8-6.1,7.8-10.3c0-4.5-2.1-7.6-6.3-9.4c-4.2-1.8-11.8-2.7-22.7-2.7c1.9-12.2,2.8-20.5,2.8-24.9h30.5l-0.3,6.4
		c-6.8-0.7-14.8-1.1-24-1.1c-0.9,5.1-1.3,9.9-1.3,14.3c10.2,0,17.8,1.2,22.8,3.7C339.5,83.2,342,87.2,342,92.7z"/>
	<path id="point" class="st0" d="M367.5,93.7c0,1.6-0.7,3-2,4.2c-1.3,1.2-3.1,1.8-5.5,1.8c-2,0-3.5-0.5-4.6-1.6
		c-1.1-1-1.6-2.3-1.6-3.7c0-1.5,0.7-2.9,2-4.1c1.3-1.2,3.2-1.7,5.5-1.7c2,0,3.5,0.5,4.5,1.5C367,91.1,367.5,92.3,367.5,93.7z"/>
	<path id="_x30_" class="st0" d="M423.8,78c0,6.4-2,11.8-5.9,16.1c-4,4.3-9.5,6.5-16.7,6.5c-6.9,0-12.2-2-15.9-5.9
		c-3.7-3.9-5.5-9-5.5-15.1c0-6.4,2-11.8,5.9-16.1c4-4.3,9.5-6.5,16.7-6.5c6.9,0,12.2,2,15.9,5.9C421.9,66.9,423.8,71.9,423.8,78z
		 M415.3,79.6c0-5.3-1.2-9.5-3.7-12.6c-2.5-3.2-5.9-4.7-10.3-4.7c-4.2,0-7.5,1.5-9.8,4.5s-3.4,6.7-3.4,11.2c0,5.3,1.2,9.5,3.7,12.6
		c2.5,3.2,5.9,4.7,10.3,4.7c3.9,0,7-1.4,9.5-4.2C414.1,88.4,415.3,84.6,415.3,79.6z"/>
</g>
</svg>
